<svg id="Layer_1" data-name="Layer 1" xmlns="http://www.w3.org/2000/svg" xmlns:xlink="http://www.w3.org/1999/xlink" viewBox="0 0 336.88 124.97"><defs><style>.cls-1{fill:#fff;}.cls-2{clip-path:url(#clip-path);}</style><clipPath id="clip-path" transform="translate(-84.23 -65.39)"><path class="cls-1" d="M218.88,180.75a56.25,56.25,0,0,1-56.21-56.43c0-30.6,25.16-56.21,55.3-56.21A57.38,57.38,0,0,1,260.81,87h3.51a57.66,57.66,0,0,0-44.54-21.57c-33.31,0-59.83,26.06-59.83,58.47,0,33.09,26.29,59.61,58.93,59.61a59,59,0,0,0,51.5-30.41h-3.1A55.82,55.82,0,0,1,218.88,180.75Z"/></clipPath></defs><path class="cls-1" d="M140.48,98.41A41.82,41.82,0,0,0,118,104.76V70.31h56c.9,0,1.58-.46,1.58-1.36s-.68-1.36-1.58-1.36H118a2.4,2.4,0,0,0-2.72,2.72v35.8c0,1.59.68,2.27,1.81,2.27.45,0,.91-.23,1.81-.9,5.44-3.86,13.83-6.35,21.54-6.35a39.55,39.55,0,0,1-.23,79.1,40.59,40.59,0,0,1-30.06-14v4a42.21,42.21,0,0,0,72.44-29.63A42.37,42.37,0,0,0,140.48,98.41Z" transform="translate(-84.23 -65.39)"/><path class="cls-1" d="M102.6,67.59c1.19,0,1.46.92,1.46,2.78V181.18c0,.93-.45,1.62-1.36,1.62s-1.36-.69-1.36-1.62V70.37S101.17,67.59,102.6,67.59Z" transform="translate(-84.23 -65.39)"/><path class="cls-1" d="M98.36,68c.85.86-.22,2-.41,2.23L86.53,82c-.09.1-1.37.65-2,0s0-1.85.09-2L96,68.26S97.34,67,98.36,68Z" transform="translate(-84.23 -65.39)"/><path class="cls-1" d="M218.88,180.75a56.25,56.25,0,0,1-56.21-56.43c0-30.6,25.16-56.21,55.3-56.21A57.38,57.38,0,0,1,260.81,87h3.51a57.66,57.66,0,0,0-44.54-21.57c-33.31,0-59.83,26.06-59.83,58.47,0,33.09,26.29,59.61,58.93,59.61a59,59,0,0,0,51.5-30.41h-3.1A55.82,55.82,0,0,1,218.88,180.75Z" transform="translate(-84.23 -65.39)"/><g class="cls-2"><path class="cls-1" d="M260.81,87A57.38,57.38,0,0,0,218,68.11c-30.14,0-55.3,25.61-55.3,56.21a56.19,56.19,0,0,0,104.61,28.74" transform="translate(-84.23 -65.39)"/></g><path class="cls-1" d="M221.51,99.19h6.89l2.24,14.24,6.5-14.24h4.77l2.26,14.24,7.92-14.24h6.68l-14.84,26.59h-4l-2-14.06-7.78,14.06h-4.23Z" transform="translate(-84.23 -65.39)"/><path class="cls-1" d="M277.36,99.19h6.53l-4.63,26.59H272.8l.49-2.86a15,15,0,0,1-4.08,2.76,10.76,10.76,0,0,1-4.17.78,9.83,9.83,0,0,1-8.27-3.88,13.64,13.64,0,0,1-2.81-9,16.06,16.06,0,0,1,7.82-13,14,14,0,0,1,7.1-2,9.18,9.18,0,0,1,4.51,1.13,8.93,8.93,0,0,1,3.33,3.3Zm-10.55,21.45a8.2,8.2,0,0,0,4.24-1.07,8.78,8.78,0,0,0,3.13-3.37,10,10,0,0,0,1.38-4.68,6.83,6.83,0,0,0-1.65-5.08,6.14,6.14,0,0,0-4.77-1.93,8.13,8.13,0,0,0-6,2.57,9.5,9.5,0,0,0-2.67,6.62,6.72,6.72,0,0,0,1.67,5A6.08,6.08,0,0,0,266.81,120.64Z" transform="translate(-84.23 -65.39)"/><path class="cls-1" d="M288.79,88.92h6.51L289,125.78h-6.51Z" transform="translate(-84.23 -65.39)"/><path class="cls-1" d="M318.72,88.92l7.15.37-6.4,33.12-7.07,3.37.49-2.86a14.78,14.78,0,0,1-4.07,2.76,10.77,10.77,0,0,1-4.18.78,9.85,9.85,0,0,1-8.27-3.88,13.63,13.63,0,0,1-2.8-9,16.08,16.08,0,0,1,7.81-13,14,14,0,0,1,7.11-2A9.2,9.2,0,0,1,313,99.63a8.83,8.83,0,0,1,3.32,3.3ZM306.4,120.64a8.17,8.17,0,0,0,4.24-1.07,8.85,8.85,0,0,0,3.13-3.37,10.12,10.12,0,0,0,1.37-4.68,6.79,6.79,0,0,0-1.65-5.08,6.1,6.1,0,0,0-4.75-1.93,8.13,8.13,0,0,0-6,2.57,9.53,9.53,0,0,0-2.66,6.62,6.71,6.71,0,0,0,1.66,5A6.08,6.08,0,0,0,306.4,120.64Z" transform="translate(-84.23 -65.39)"/><path class="cls-1" d="M342.35,118l6.59.6a13.8,13.8,0,0,1-6.21,6.39,16.87,16.87,0,0,1-7.12,1.48q-6.09,0-9.48-3.42a11.73,11.73,0,0,1-3.19-9.09,15.61,15.61,0,0,1,4.77-11,14.79,14.79,0,0,1,10.75-4.49,13.09,13.09,0,0,1,6.61,1.64,11.07,11.07,0,0,1,4.44,4.76,13.87,13.87,0,0,1,1.45,6.8,18.09,18.09,0,0,1-.34,2.69H329.4a5.9,5.9,0,0,0,1.67,4.41,6.39,6.39,0,0,0,4.7,1.65A9.93,9.93,0,0,0,342.35,118Zm2-8.39a6.53,6.53,0,0,0-2.32-3.71,6.62,6.62,0,0,0-4.08-1.25,7.8,7.8,0,0,0-4.37,1.29,8.42,8.42,0,0,0-3.06,3.67Z" transform="translate(-84.23 -65.39)"/><path class="cls-1" d="M355,99.19h6.51l-.46,2.69A12,12,0,0,1,369,98.5a7.43,7.43,0,0,1,5.58,2.19,7.27,7.27,0,0,1,2,5.52,39.72,39.72,0,0,1-.58,4.67l-2.56,14.9H366.9l2.49-14.55a26.89,26.89,0,0,0,.41-3.37,3.15,3.15,0,0,0-.83-2.48,3.53,3.53,0,0,0-2.58-.87,5.91,5.91,0,0,0-3.33,1.14,7.64,7.64,0,0,0-2.63,3.15,33,33,0,0,0-1.89,7.57L357,125.78h-6.51Z" transform="translate(-84.23 -65.39)"/><path class="cls-1" d="M312.91,162.58H306.4l6-33.87,6.8-3-2.23,13.14a14.58,14.58,0,0,1,4-2.79,10.6,10.6,0,0,1,4.14-.77,9.73,9.73,0,0,1,8.2,3.88,13.66,13.66,0,0,1,2.77,9,15.5,15.5,0,0,1-2.24,7.5,15.33,15.33,0,0,1-5.51,5.57,13.8,13.8,0,0,1-7,2,9.11,9.11,0,0,1-4.5-1.13,8.56,8.56,0,0,1-3.27-3.27Zm10.42-21.48a7.91,7.91,0,0,0-4.19,1.09,8.79,8.79,0,0,0-3.1,3.39,10.27,10.27,0,0,0-1.36,4.7,6.89,6.89,0,0,0,1.63,5.06,6,6,0,0,0,4.7,1.91,8,8,0,0,0,5.94-2.56,9.61,9.61,0,0,0,2.64-6.62,6.83,6.83,0,0,0-1.65-5A5.93,5.93,0,0,0,323.33,141.1Z" transform="translate(-84.23 -65.39)"/><path class="cls-1" d="M360.54,136h6.54l-4.64,26.59H356l.49-2.85a15,15,0,0,1-4.07,2.76,10.77,10.77,0,0,1-4.18.78,9.82,9.82,0,0,1-8.26-3.89,13.54,13.54,0,0,1-2.81-9,16.08,16.08,0,0,1,7.81-13,14,14,0,0,1,7.11-2,9.1,9.1,0,0,1,4.51,1.13,8.69,8.69,0,0,1,3.32,3.3ZM350,157.45a8.31,8.31,0,0,0,4.25-1.07,8.85,8.85,0,0,0,3.13-3.37,10.26,10.26,0,0,0,1.38-4.68,6.86,6.86,0,0,0-1.66-5.09,6.13,6.13,0,0,0-4.76-1.92,8.12,8.12,0,0,0-6,2.57,9.53,9.53,0,0,0-2.66,6.62,6.69,6.69,0,0,0,1.66,5A6.12,6.12,0,0,0,350,157.45Z" transform="translate(-84.23 -65.39)"/><path class="cls-1" d="M370.3,136h6.52l-.47,2.7a12,12,0,0,1,7.9-3.38,7.43,7.43,0,0,1,5.58,2.19,7.19,7.19,0,0,1,2,5.51,39.83,39.83,0,0,1-.58,4.68l-2.56,14.89h-6.51l2.5-14.54a31.67,31.67,0,0,0,.41-3.37,3.11,3.11,0,0,0-.84-2.48,3.53,3.53,0,0,0-2.58-.87,5.91,5.91,0,0,0-3.32,1.14,7.47,7.47,0,0,0-2.64,3.15,32.67,32.67,0,0,0-1.89,7.56l-1.58,9.41h-6.51Z" transform="translate(-84.23 -65.39)"/><path class="cls-1" d="M230,135.46l-1.18.3a2.54,2.54,0,0,0-.77-1.28,1.75,1.75,0,0,0-1.17-.47,1.46,1.46,0,0,0-1.13.48,1.88,1.88,0,0,0-.44,1.3,2.94,2.94,0,0,0,.47,1.49,8.25,8.25,0,0,0,1.39,1.52,7.23,7.23,0,0,1,1.59,2,4.12,4.12,0,0,1,.45,1.8,3.53,3.53,0,0,1-.49,1.8,3.69,3.69,0,0,1-1.33,1.36,3.38,3.38,0,0,1-1.78.5,3,3,0,0,1-2.07-.78,4.59,4.59,0,0,1-1.26-2.31l1.15-.4a3.3,3.3,0,0,0,.88,1.71,2,2,0,0,0,1.41.56,2.09,2.09,0,0,0,1.56-.69,2.41,2.41,0,0,0,.65-1.7,3.16,3.16,0,0,0-.37-1.45,7.13,7.13,0,0,0-1.44-1.7,9.29,9.29,0,0,1-1.5-1.66,3.89,3.89,0,0,1-.57-2,3,3,0,0,1,.84-2.18,2.89,2.89,0,0,1,3.92-.18A3.9,3.9,0,0,1,230,135.46Z" transform="translate(-84.23 -65.39)"/><path class="cls-1" d="M238.85,133.08,243,145.92h-1.27l-1.37-4.2h-5.27l-2.33,4.2H231.4l7.16-12.84Zm-.39,2.69-2.65,4.74H240Z" transform="translate(-84.23 -65.39)"/><path class="cls-1" d="M244.29,133.08h1.25l3.09,10.18,5.78-10.18h1.37l-7.29,12.84h-.29Z" transform="translate(-84.23 -65.39)"/><path class="cls-1" d="M258.3,133.08h1.26l-1.69,12.84h-1.25Z" transform="translate(-84.23 -65.39)"/><path class="cls-1" d="M273.82,133.08H275l-1.69,12.84h-.27l-7-9.91-1.31,9.91h-1.24l1.69-12.84h.27l7,9.92Z" transform="translate(-84.23 -65.39)"/><path class="cls-1" d="M290.34,135.84l-1,.76a6.55,6.55,0,0,0-2.21-1.94,5.34,5.34,0,0,0-5.45.14,6.1,6.1,0,0,0-2.15,2.19,5.86,5.86,0,0,0-.79,2.93,4.93,4.93,0,0,0,1.47,3.61,4.85,4.85,0,0,0,3.58,1.49,5.83,5.83,0,0,0,2.42-.53,5.1,5.1,0,0,0,1.87-1.42,5.48,5.48,0,0,0,1.05-2.18h-4.56v-1.26h6.06a7.07,7.07,0,0,1-2.05,4.78,6.36,6.36,0,0,1-4.65,1.83,6.23,6.23,0,0,1-4.64-1.79A6.1,6.1,0,0,1,277.5,140a7.17,7.17,0,0,1,.94-3.6,7,7,0,0,1,2.58-2.64,7,7,0,0,1,9.32,2.12Z" transform="translate(-84.23 -65.39)"/><path class="cls-1" d="M300.64,135.46l-1.17.3a2.63,2.63,0,0,0-.78-1.28,1.72,1.72,0,0,0-1.17-.47,1.46,1.46,0,0,0-1.13.48,1.87,1.87,0,0,0-.43,1.3,2.92,2.92,0,0,0,.46,1.49,8.65,8.65,0,0,0,1.39,1.52,7.23,7.23,0,0,1,1.59,2,4.14,4.14,0,0,1,.46,1.8,3.54,3.54,0,0,1-.5,1.8,3.62,3.62,0,0,1-1.33,1.36,3.36,3.36,0,0,1-1.78.5,3,3,0,0,1-2.07-.78,4.51,4.51,0,0,1-1.25-2.31l1.15-.4a3.22,3.22,0,0,0,.88,1.71,2,2,0,0,0,1.4.56,2.07,2.07,0,0,0,1.56-.69,2.41,2.41,0,0,0,.65-1.7,3,3,0,0,0-.37-1.45,6.68,6.68,0,0,0-1.44-1.7,9.29,9.29,0,0,1-1.5-1.66,3.88,3.88,0,0,1-.56-2,3,3,0,0,1,.83-2.18,2.89,2.89,0,0,1,3.92-.18A3.9,3.9,0,0,1,300.64,135.46Z" transform="translate(-84.23 -65.39)"/><path class="cls-1" d="M398.35,125.73h6.43l-3.35,19.44,10.74-10.33h8.94l-13.86,13L417,162.58h-7.82l-8.53-13-2.25,13H392Z" transform="translate(-84.23 -65.39)"/><path class="cls-1" d="M298.12,187.24c.23-.91.56-1.27,1.13-1.27s1.19.49,1.61.49.45-.15.63-.6l.55.16c-.24.91-.55,1.27-1.13,1.27s-1.2-.49-1.61-.49-.44.15-.62.6Z" transform="translate(-84.23 -65.39)"/><path class="cls-1" d="M305.3,181.84h6.07v.87h-5.12v2.86h4.58v.87h-4.58v2.94h5.18v.86H305.3Z" transform="translate(-84.23 -65.39)"/><path class="cls-1" d="M312.79,189l.59-.7a4,4,0,0,0,2.88,1.19c1.13,0,1.87-.6,1.87-1.43v0c0-.78-.42-1.23-2.18-1.6-1.94-.42-2.82-1-2.82-2.42v0a2.48,2.48,0,0,1,2.76-2.3,4.37,4.37,0,0,1,2.95,1l-.56.73a3.66,3.66,0,0,0-2.42-.91c-1.09,0-1.79.6-1.79,1.35v0c0,.79.44,1.23,2.28,1.63s2.74,1.09,2.74,2.37v0c0,1.43-1.2,2.37-2.87,2.37A4.91,4.91,0,0,1,312.79,189Z" transform="translate(-84.23 -65.39)"/><path class="cls-1" d="M323.06,182.72h-2.82v-.88h6.6v.88H324v7.52h-1Z" transform="translate(-84.23 -65.39)"/><path class="cls-1" d="M327.16,189h1.1v1.26h-1.1Z" transform="translate(-84.23 -65.39)"/><path class="cls-1" d="M334.92,182.77l-1.58.49-.23-.77,2.05-.71h.69v8.46h-.93Z" transform="translate(-84.23 -65.39)"/><path class="cls-1" d="M337.69,188v0a2.26,2.26,0,0,1,1.73-2.06A2.14,2.14,0,0,1,338,184v0c0-1.29,1.33-2.22,2.87-2.22s2.86.93,2.86,2.22v0a2.14,2.14,0,0,1-1.44,1.93,2.27,2.27,0,0,1,1.73,2v0c0,1.43-1.37,2.39-3.15,2.39S337.69,189.39,337.69,188Zm5.35,0v0c0-.94-1-1.6-2.19-1.6s-2.2.66-2.2,1.6v0c0,.85.82,1.57,2.2,1.57S343,188.81,343,188Zm-.28-3.93v0c0-.82-.82-1.45-1.91-1.45s-1.92.61-1.92,1.45v0c0,.91.85,1.53,1.92,1.53A1.71,1.71,0,0,0,342.76,184Z" transform="translate(-84.23 -65.39)"/><path class="cls-1" d="M349.94,182.71h-4.62v-.87H351v.71l-3.81,7.69h-1.06Z" transform="translate(-84.23 -65.39)"/><path class="cls-1" d="M352.06,189.51l3-2.69c1.29-1.15,1.75-1.8,1.75-2.64a1.6,1.6,0,0,0-1.69-1.6,2.67,2.67,0,0,0-2.25,1.44l-.7-.51a3.33,3.33,0,0,1,3-1.79,2.42,2.42,0,0,1,2.61,2.38v0c0,1.23-.65,2-2.13,3.27l-2.24,2h4.45v.86h-5.86Z" transform="translate(-84.23 -65.39)"/><path class="cls-1" d="M360.74,187.24c.24-.91.57-1.27,1.14-1.27s1.19.49,1.61.49.44-.15.62-.6l.56.16c-.24.91-.56,1.27-1.13,1.27s-1.2-.49-1.61-.49-.44.15-.62.6Z" transform="translate(-84.23 -65.39)"/></svg>