<svg xmlns="http://www.w3.org/2000/svg" width="91.668" height="91.666" viewBox="0 0 91.668 91.666">
  <path id="Shape" d="M44.682,91.321a20.573,20.573,0,0,0-3.956-1.844A31.533,31.533,0,0,0,30.1,87.662H10.418a2.085,2.085,0,0,1-2.083-2.083V35.42a2.086,2.086,0,0,1,2.083-2.083H31.926a28.13,28.13,0,0,1,8.545,1.372A30.167,30.167,0,0,1,45.837,37,29.454,29.454,0,0,1,59.75,33.336h21.5a2.086,2.086,0,0,1,2.084,2.083v50.16a2.085,2.085,0,0,1-2.084,2.083H61.567a31.744,31.744,0,0,0-10.648,1.813A20.028,20.028,0,0,0,47,91.318a2.042,2.042,0,0,1-1.158.348A2.084,2.084,0,0,1,44.682,91.321ZM12.5,83.495H30.1a34.882,34.882,0,0,1,13.649,2.693V40.617A25.812,25.812,0,0,0,31.926,37.5H12.5ZM47.921,40.617V86.184a34.946,34.946,0,0,1,13.643-2.689h17.6V37.5H59.75A25.817,25.817,0,0,0,47.921,40.617ZM88.55,28.9,45.833,4.487,3.117,28.9A2.086,2.086,0,0,1,1.05,25.275L44.8.275a2.076,2.076,0,0,1,2.066,0l43.75,25A2.086,2.086,0,0,1,88.55,28.9Z" transform="translate(0)" fill="#207b41"/>
</svg>
