<svg xmlns="http://www.w3.org/2000/svg" width="80.555" height="95.515" viewBox="0 0 80.555 95.515">
  <path id="Shape" d="M78.445,95.516H2.111A2.148,2.148,0,0,1,0,93.376a2.113,2.113,0,0,1,2.11-2.11h8.5V74.32h-8.5A2.147,2.147,0,0,1,0,72.182a2.114,2.114,0,0,1,2.11-2.113h8.5V42.515h-8.5A2.111,2.111,0,0,1,.167,41.209a2.2,2.2,0,0,1,.445-2.333L38.778.625a2.112,2.112,0,0,1,3,0L79.944,38.737a2.2,2.2,0,0,1,.445,2.333,2.1,2.1,0,0,1-1.944,1.3h-8.5V70.153h8.5a2.113,2.113,0,0,1,2.11,2.111,2.148,2.148,0,0,1-2.11,2.14h-8.5V91.348h8.5a2.106,2.106,0,0,1,2.11,2.028A2.148,2.148,0,0,1,78.445,95.516ZM42.388,74.4V91.348H65.722V74.4Zm-27.554,0V91.348H38.167V74.4ZM42.388,42.375V70.153H65.722V42.375Zm-27.554.141V70.069H38.167V42.515ZM40.278,5.236,7.249,38.265H73.307L40.278,5.236Z" transform="translate(0 0)" fill="#fff"/>
</svg>
