<svg xmlns="http://www.w3.org/2000/svg" width="97.228" height="76.631" viewBox="0 0 97.228 76.631">
  <path id="Combined_Shape" data-name="Combined Shape" d="M13.525,76.631C3.792,76.631,0,72.471,0,61.79V1.968A1.969,1.969,0,0,1,1.966,0H72.138A1.972,1.972,0,0,1,74.11,1.968V28.775H95.266a1.962,1.962,0,0,1,1.962,1.969V61.79c0,10.68-3.792,14.841-13.525,14.841ZM74.112,61.79c0,9.329,2.96,10.9,9.594,10.9s9.588-1.574,9.588-10.9l0-29.078H74.112Zm-70.175,0c0,9.329,2.957,10.9,9.588,10.9H72.843c-1.822-2.344-2.671-5.81-2.671-10.9V3.938H3.938Zm10.785.863a1.969,1.969,0,0,1-1.966-1.969V29.306a1.969,1.969,0,0,1,1.966-1.968H37.441a1.972,1.972,0,0,1,1.972,1.968V60.684a1.973,1.973,0,0,1-1.972,1.969Zm1.972-3.941H35.475V31.275H16.694Zm26.818-1.966V52.809H62.122v3.938Zm0-9.784V43.025H62.122v3.938Zm0-9.788V33.238H62.122v3.938ZM12.757,21.644V17.707H62.122v3.938Z" fill="#fff"/>
</svg>
