<svg xmlns="http://www.w3.org/2000/svg" width="106.339" height="106.339" viewBox="0 0 106.339 106.339">
  <g id="noun_coronavirus_3662420" transform="translate(-0.3 -0.3)">
    <path id="Path_16" data-name="Path 16" d="M73.835,51,73.3,55.172l3.744-1.6Z" transform="translate(5.096 3.539)" fill="none"/>
    <path id="Path_17" data-name="Path 17" d="M62.033,70.83l2.14-3.53H60Z" transform="translate(4.168 4.677)" fill="none"/>
    <path id="Path_18" data-name="Path 18" d="M73.323,40.665l.321-4.065L69.9,38.312Z" transform="translate(4.859 2.534)" fill="none"/>
    <path id="Path_19" data-name="Path 19" d="M26.8,12.144V8.4l-3.1,1.926Z" transform="translate(1.634 0.565)" fill="none"/>
    <path id="Path_20" data-name="Path 20" d="M47.965,24.9H43.9l2.033,3.637Z" transform="translate(3.044 1.717)" fill="none"/>
    <path id="Path_21" data-name="Path 21" d="M50.737,2.3H47.1l1.819,3.209Z" transform="translate(3.267 0.14)" fill="none"/>
    <path id="Path_22" data-name="Path 22" d="M62.265,50.407,58.2,50.3l1.926,3.637Z" transform="translate(4.042 3.491)" fill="none"/>
    <path id="Path_23" data-name="Path 23" d="M71.3,7.3v3.637l3.209-1.819Z" transform="translate(4.957 0.489)" fill="none"/>
    <path id="Path_24" data-name="Path 24" d="M89.919,23.7,88.1,26.8h3.744Z" transform="translate(6.129 1.634)" fill="none"/>
    <path id="Path_25" data-name="Path 25" d="M25.2,49.2l1.07,4.065,3-2.888Z" transform="translate(1.738 3.414)" fill="none"/>
    <path id="Path_26" data-name="Path 26" d="M59.058,36.058,57.988,32.1,55.1,34.988Z" transform="translate(3.826 2.22)" fill="none"/>
    <path id="Path_27" data-name="Path 27" d="M33.64,69.43l2.033-3.53H31.5Z" transform="translate(2.178 4.58)" fill="none"/>
    <path id="Path_28" data-name="Path 28" d="M43.6,50.94l3.744,1.926L47.13,48.8Z" transform="translate(3.023 3.386)" fill="none"/>
    <path id="Path_29" data-name="Path 29" d="M35.082,39.551,36.365,35.7l-4.065.856Z" transform="translate(2.234 2.471)" fill="none"/>
    <path id="Path_30" data-name="Path 30" d="M46.2,72.568l3.851,1.5L49.409,70Z" transform="translate(3.204 4.866)" fill="none"/>
    <path id="Path_31" data-name="Path 31" d="M52.395,15.5A36.694,36.694,0,1,0,89.089,52.194,36.754,36.754,0,0,0,52.395,15.5ZM64.911,40.213l-11.233-3,8.238-8.238Zm-11.233-16.8L47.9,33.473,42.124,23.417ZM25.863,59.79l-3-11.233h0L34.1,51.66Zm8.879,17.545L28.859,67.279H40.413ZM37.1,45.241l-7.81-8.665,11.447-2.354ZM51,47.273l.535,11.554-10.27-5.349ZM44.05,77.121l8.986-7.382,1.926,11.447ZM68.977,50.7l-5.884,9.949-5.67-10.163ZM65.125,78.833,59.348,68.777H70.9Zm9.521-17.866,1.6-11.447,9.2,7.168ZM78.819,46.1,69.4,39.357,80,34.543Z" transform="translate(1.075 1.061)" fill="none"/>
    <path id="Path_32" data-name="Path 32" d="M73.4,88.1v3.744l3.1-1.926Z" transform="translate(5.103 6.129)" fill="none"/>
    <path id="Path_33" data-name="Path 33" d="M92.937,71.3H89.3l1.819,3.209Z" transform="translate(6.213 4.957)" fill="none"/>
    <path id="Path_34" data-name="Path 34" d="M10.326,76.5l1.819-3.1H8.4Z" transform="translate(0.565 5.103)" fill="none"/>
    <path id="Path_35" data-name="Path 35" d="M49.5,97.909h3.637L51.319,94.7Z" transform="translate(3.435 6.59)" fill="none"/>
    <path id="Path_36" data-name="Path 36" d="M2.3,53.137l3.209-1.819L2.3,49.5Z" transform="translate(0.14 3.435)" fill="none"/>
    <path id="Path_37" data-name="Path 37" d="M97.909,50.737V47.1L94.7,48.919Z" transform="translate(6.59 3.267)" fill="none"/>
    <path id="Path_38" data-name="Path 38" d="M7.3,28.909h3.637L9.119,25.7Z" transform="translate(0.489 1.773)" fill="none"/>
    <path id="Path_39" data-name="Path 39" d="M28.909,92.937V89.3L25.7,91.119Z" transform="translate(1.773 6.213)" fill="none"/>
    <path id="Path_40" data-name="Path 40" d="M52.534,13.5A38.834,38.834,0,1,0,91.368,52.334,38.9,38.9,0,0,0,52.534,13.5Zm0,75.529A36.694,36.694,0,1,1,89.229,52.334,36.754,36.754,0,0,1,52.534,89.029Z" transform="translate(0.935 0.921)" fill="#fff"/>
    <path id="Path_41" data-name="Path 41" d="M48.093,13.78h2.14V8.11L54.726.3H43.6l4.493,7.81ZM47.344,2.44h3.637L49.163,5.649Z" transform="translate(3.023 0)" fill="#fff"/>
    <path id="Path_42" data-name="Path 42" d="M30.3,19.984l1.819-1.07-2.888-4.921V4.9L19.6,10.463l7.81,4.493Zm-3.209-7.6L23.879,10.57l3.209-1.819Z" transform="translate(1.347 0.321)" fill="#fff"/>
    <path id="Path_43" data-name="Path 43" d="M17.708,34.117l1.07-1.926L13.856,29.3,9.363,21.6,3.8,31.228h8.986ZM7.544,29.2l1.819-3.209L11.182,29.2Z" transform="translate(0.244 1.487)" fill="#fff"/>
    <path id="Path_44" data-name="Path 44" d="M13.78,52.633v-2.14H8.11L.3,46V57.126l7.81-4.493Zm-11.34.749V49.744l3.209,1.819Z" transform="translate(0 3.19)" fill="#fff"/>
    <path id="Path_45" data-name="Path 45" d="M13.993,71.482H4.9l5.563,9.628,4.493-7.81,4.921-2.782L18.808,68.7ZM10.57,76.831,8.751,73.621h3.637Z" transform="translate(0.321 4.775)" fill="#fff"/>
    <path id="Path_46" data-name="Path 46" d="M29.41,87.121,21.6,91.614l9.628,5.563V88.191L34.01,83.27,32.084,82.2ZM29.2,93.433l-3.209-1.819L29.2,89.8Z" transform="translate(1.487 5.717)" fill="#fff"/>
    <path id="Path_47" data-name="Path 47" d="M52.633,87.1h-2.14v5.67L46,100.58H57.126l-4.493-7.81Zm.749,11.34H49.744l1.819-3.209Z" transform="translate(3.19 6.06)" fill="#fff"/>
    <path id="Path_48" data-name="Path 48" d="M70.519,81,68.7,82.07l2.888,4.921v8.986l9.628-5.563-7.81-4.493Zm3.209,7.6,3.209,1.819-3.209,1.819Z" transform="translate(4.775 5.634)" fill="#fff"/>
    <path id="Path_49" data-name="Path 49" d="M83.27,66.7,82.2,68.626l4.921,2.888,4.493,7.81L97.177,69.7H88.191Zm10.163,4.921-1.819,3.209L89.8,71.621Z" transform="translate(5.717 4.635)" fill="#fff"/>
    <path id="Path_50" data-name="Path 50" d="M92.77,48.093H87.1v2.14h5.67l7.81,4.493V43.6Zm5.67,2.888-3.209-1.819,3.209-1.819Z" transform="translate(6.06 3.023)" fill="#fff"/>
    <path id="Path_51" data-name="Path 51" d="M86.991,29.328h8.986L90.414,19.7l-4.493,7.81L81,30.291l1.07,1.819Zm3.423-5.349,1.819,3.209H88.6Z" transform="translate(5.634 1.354)" fill="#fff"/>
    <path id="Path_52" data-name="Path 52" d="M71.4,13.856l7.81-4.493L69.582,3.8v8.986L66.8,17.708l1.926,1.07Zm.214-6.312,3.209,1.819-3.209,1.819Z" transform="translate(4.642 0.244)" fill="#fff"/>
    <path id="Path_53" data-name="Path 53" d="M51.954,22.9H40.4l5.777,10.056ZM48.21,25.04l-2.033,3.53-2.033-3.53Z" transform="translate(2.799 1.578)" fill="#fff"/>
    <path id="Path_54" data-name="Path 54" d="M62.433,39.333l-3-11.233L51.2,36.338Zm-3.1-3-3.958-1.07,2.888-2.888Z" transform="translate(3.553 1.941)" fill="#fff"/>
    <path id="Path_55" data-name="Path 55" d="M36.2,44.019,39.84,33,28.5,35.354Zm-.856-4.279-2.782-3.1,4.065-.856Z" transform="translate(1.969 2.283)" fill="#fff"/>
    <path id="Path_56" data-name="Path 56" d="M66.254,48.414,54.7,48.2l5.67,10.163Zm-3.744,2.14-2.14,3.53-2.033-3.637Z" transform="translate(3.798 3.344)" fill="#fff"/>
    <path id="Path_57" data-name="Path 57" d="M33.884,73.956,39.661,63.9H28Zm0-4.386-2.033-3.53h4.172Z" transform="translate(1.934 4.44)" fill="#fff"/>
    <path id="Path_58" data-name="Path 58" d="M22.4,46.4h0l3,11.233L33.633,49.5Zm3,3,3.958,1.07-2.888,3Z" transform="translate(1.543 3.218)" fill="#fff"/>
    <path id="Path_59" data-name="Path 59" d="M49.335,45.2,39.6,51.4l10.27,5.349Zm-5.456,5.991L47.3,48.944l.214,4.065Z" transform="translate(2.744 3.134)" fill="#fff"/>
    <path id="Path_60" data-name="Path 60" d="M42.2,73.582l10.912,4.065L51.186,66.2Zm4.279-.749,3.209-2.675.642,4.065Z" transform="translate(2.925 4.601)" fill="#fff"/>
    <path id="Path_61" data-name="Path 61" d="M75.321,44.854,76.391,33.3,65.8,38.114ZM73.61,40.9l-3.316-2.354,3.744-1.712Z" transform="translate(4.573 2.304)" fill="#fff"/>
    <path id="Path_62" data-name="Path 62" d="M62.277,75.356,68.054,65.3H56.5Zm0-4.386-2.033-3.53H64.31Z" transform="translate(3.923 4.538)" fill="#fff"/>
    <path id="Path_63" data-name="Path 63" d="M70.8,58.754l10.7-4.386L72.3,47.2Zm3.209-7.489,3.209,2.568-3.851,1.6Z" transform="translate(4.922 3.274)" fill="#fff"/>
  </g>
</svg>
