<svg id="noun_Paper_Shredder_324201" data-name="noun_Paper Shredder_324201" xmlns="http://www.w3.org/2000/svg" width="91.085" height="96.145" viewBox="0 0 91.085 96.145">
  <path id="Path_1" data-name="Path 1" d="M84.034,42.169H77.591V0h-64.1V42.169H7.051A7.069,7.069,0,0,0,0,49.22V62.106a7.069,7.069,0,0,0,7.051,7.051H84.034a7.058,7.058,0,0,0,7.051-7.051V49.22A7.069,7.069,0,0,0,84.034,42.169ZM16.868,3.374h57.35v38.8H16.868ZM87.711,62.106a3.686,3.686,0,0,1-3.677,3.677H7.051a3.686,3.686,0,0,1-3.677-3.677V49.22a3.686,3.686,0,0,1,3.677-3.677H84.034a3.686,3.686,0,0,1,3.677,3.677Z" fill="#fff"/>
  <path id="Path_2" data-name="Path 2" d="M48.747,29a6.747,6.747,0,1,0,6.747,6.747A6.745,6.745,0,0,0,48.747,29Zm0,10.121a3.374,3.374,0,1,1,3.374-3.374A3.383,3.383,0,0,1,48.747,39.121Z" transform="translate(28.844 19.916)" fill="#fff"/>
  <path id="Path_3" data-name="Path 3" d="M38.747,29a6.747,6.747,0,1,0,6.747,6.747A6.745,6.745,0,0,0,38.747,29Zm0,10.121a3.374,3.374,0,1,1,3.374-3.374A3.383,3.383,0,0,1,38.747,39.121Z" transform="translate(21.976 19.916)" fill="#fff"/>
  <path id="Path_4" data-name="Path 4" d="M10.747,29a6.747,6.747,0,1,0,6.747,6.747A6.745,6.745,0,0,0,10.747,29Zm0,10.121a3.374,3.374,0,1,1,3.374-3.374A3.383,3.383,0,0,1,10.747,39.121Z" transform="translate(2.747 19.916)" fill="#fff"/>
  <path id="Path_5" data-name="Path 5" d="M31.884,15.876a1.687,1.687,0,1,0-2.4,0,1.742,1.742,0,0,0,1.2.489A1.774,1.774,0,0,0,31.884,15.876Z" transform="translate(19.916 8.936)" fill="#fff"/>
  <path id="Path_6" data-name="Path 6" d="M32,14.687a1.692,1.692,0,0,0,1.687,1.687H43.807a1.687,1.687,0,0,0,0-3.374H33.687A1.692,1.692,0,0,0,32,14.687Z" transform="translate(21.976 8.928)" fill="#fff"/>
  <path id="Path_7" data-name="Path 7" d="M40.121,19H31.687a1.687,1.687,0,1,0,0,3.374h8.434a1.687,1.687,0,0,0,0-3.374Z" transform="translate(20.603 13.048)" fill="#fff"/>
  <path id="Path_8" data-name="Path 8" d="M39.489,19.481a1.742,1.742,0,0,0-.489,1.2,1.687,1.687,0,1,0,3.374,0,1.742,1.742,0,0,0-.489-1.2A1.766,1.766,0,0,0,39.489,19.481Z" transform="translate(26.784 13.057)" fill="#fff"/>
  <path id="Path_9" data-name="Path 9" d="M15.687,16.374H34.241a1.687,1.687,0,1,0,0-3.374H15.687a1.687,1.687,0,0,0,0,3.374Z" transform="translate(9.615 8.928)" fill="#fff"/>
  <path id="Path_10" data-name="Path 10" d="M20.747,19h-5.06a1.687,1.687,0,1,0,0,3.374h5.06a1.687,1.687,0,0,0,0-3.374Z" transform="translate(9.615 13.048)" fill="#fff"/>
  <path id="Path_11" data-name="Path 11" d="M31.121,19H22.687a1.687,1.687,0,0,0,0,3.374h8.434a1.687,1.687,0,0,0,0-3.374Z" transform="translate(14.422 13.048)" fill="#fff"/>
  <path id="Path_12" data-name="Path 12" d="M19.687,10.374h8.434a1.687,1.687,0,1,0,0-3.374H19.687a1.687,1.687,0,0,0,0,3.374Z" transform="translate(12.362 4.807)" fill="#fff"/>
  <path id="Path_13" data-name="Path 13" d="M15.687,10.365a1.67,1.67,0,0,0,1.687-1.687,1.687,1.687,0,0,0-2.884-1.2A1.774,1.774,0,0,0,14,8.678a1.742,1.742,0,0,0,.489,1.2A1.774,1.774,0,0,0,15.687,10.365Z" transform="translate(9.615 4.816)" fill="#fff"/>
  <path id="Path_14" data-name="Path 14" d="M42.747,7h-5.06a1.687,1.687,0,0,0,0,3.374h5.06a1.687,1.687,0,1,0,0-3.374Z" transform="translate(24.723 4.807)" fill="#fff"/>
  <path id="Path_15" data-name="Path 15" d="M38.807,8.687A1.692,1.692,0,0,0,37.121,7H28.687a1.687,1.687,0,0,0,0,3.374h8.434A1.692,1.692,0,0,0,38.807,8.687Z" transform="translate(18.542 4.807)" fill="#fff"/>
  <rect id="Rectangle_1" data-name="Rectangle 1" width="4" height="24" transform="translate(13 72.145)" fill="#fff"/>
  <rect id="Rectangle_2" data-name="Rectangle 2" width="3" height="24" transform="translate(24 72.145)" fill="#fff"/>
  <rect id="Rectangle_3" data-name="Rectangle 3" width="3" height="24" transform="translate(34 72.145)" fill="#fff"/>
  <rect id="Rectangle_4" data-name="Rectangle 4" width="3" height="24" transform="translate(44 72.145)" fill="#fff"/>
  <rect id="Rectangle_5" data-name="Rectangle 5" width="3" height="24" transform="translate(54 72.145)" fill="#fff"/>
  <rect id="Rectangle_6" data-name="Rectangle 6" width="3" height="24" transform="translate(64 72.145)" fill="#fff"/>
  <rect id="Rectangle_7" data-name="Rectangle 7" width="4" height="24" transform="translate(74 72.145)" fill="#fff"/>
</svg>
