<svg xmlns="http://www.w3.org/2000/svg" width="73.471" height="99.519" viewBox="0 0 73.471 99.519">
  <g id="noun_mobile_wallet_3593510" data-name="noun_mobile wallet_3593510" transform="translate(-29.365 -177.296)">
    <path id="Path_64" data-name="Path 64" d="M39.276,177.3a9.922,9.922,0,0,0-9.911,9.9v79.715a9.922,9.922,0,0,0,9.911,9.9h41.6c5.3,0,9.9-3.8,9.9-9.254V254.08a1.688,1.688,0,1,0-3.377,0v3.307H32.742V187.2a6.479,6.479,0,0,1,6.535-6.525h41.6A6.471,6.471,0,0,1,87.4,187.2v8.69a1.688,1.688,0,1,0,3.377,0V187.2a9.914,9.914,0,0,0-9.9-9.9Zm16.645,9.893a1.688,1.688,0,1,0,0,3.377h8.3a1.688,1.688,0,1,0,0-3.377Zm-3.963,12.628a8,8,0,0,0-7.709,8.229v13.4a1.688,1.688,0,1,0,3.377,0v-13.4a4.575,4.575,0,0,1,4.332-4.852H87.4v2.133a1.688,1.688,0,1,0,3.377,0V201.5a1.689,1.689,0,0,0-1.685-1.685Zm4.585,8.621h-.007a1.691,1.691,0,1,0,.174,3.377H92.2a4.567,4.567,0,0,1,4.326,4.85v2a1.688,1.688,0,1,0,3.377,0v-2a7.989,7.989,0,0,0-7.7-8.226H56.711q-.083,0-.167,0Zm.685,12.088a14.288,14.288,0,1,0,14.288,14.288,14.306,14.306,0,0,0-14.288-14.288ZM91.5,222.261a7.218,7.218,0,1,0,0,14.436h9.647a1.689,1.689,0,0,0,1.685-1.682V223.946a1.689,1.689,0,0,0-1.685-1.685ZM57.228,223.9a10.91,10.91,0,1,1-10.9,10.911,10.887,10.887,0,0,1,10.9-10.911ZM91.5,225.637H99.46v7.683H91.5a3.842,3.842,0,1,1,0-7.683Zm-33.794.517a1.235,1.235,0,0,0-1.218,1.255v1.341a4.059,4.059,0,0,0-2.351,1.745,3.308,3.308,0,0,0-.1,3.219,4.805,4.805,0,0,0,3.165,2.218,2.259,2.259,0,0,1,1.552,1,.9.9,0,0,1-.044.931c-.367.632-1.573,1.393-3.922.227a1.235,1.235,0,1,0-1.1,2.212,7.44,7.44,0,0,0,2.8.777v1.135a1.237,1.237,0,0,0,2.474,0v-1.5A3.919,3.919,0,0,0,60.85,239.1a3.451,3.451,0,0,0,.1-3.281,4.719,4.719,0,0,0-3.114-2.272,2.426,2.426,0,0,1-1.622-.982.72.72,0,0,1,.044-.8c.352-.589,1.507-1.291,3.395-.316a1.238,1.238,0,1,0,1.13-2.2,6.486,6.486,0,0,0-1.822-.62V227.41a1.235,1.235,0,0,0-1.255-1.255ZM98.188,238.7a1.689,1.689,0,0,0-1.666,1.719v1.455a4.567,4.567,0,0,1-4.325,4.85H69.209a1.688,1.688,0,1,0,0,3.377H92.2a7.989,7.989,0,0,0,7.7-8.226v-1.455a1.689,1.689,0,0,0-1.71-1.719ZM32.742,260.763H87.4v6.8c0,3.647-2.716,5.878-6.525,5.878h-41.6a6.479,6.479,0,0,1-6.535-6.525Zm27.331,2.7a3.619,3.619,0,1,0,3.62,3.617A3.62,3.62,0,0,0,60.073,263.46Z" fill="#fff"/>
  </g>
</svg>
