<svg xmlns="http://www.w3.org/2000/svg" width="87" height="101.081" viewBox="0 0 87 101.081">
  <g id="noun_security_and_protection_2699108" data-name="noun_security and protection_2699108" transform="translate(-5.459 -1.001)">
    <path id="Path_65" data-name="Path 65" d="M63.3,37.772a1.58,1.58,0,0,0,1.491-1.057,59.727,59.727,0,0,0,3.053-24.451,1.581,1.581,0,0,0-1.922-1.41c-11.77,2.658-20.72.391-26.913-4.138a1.789,1.789,0,0,0-1.923.039c-.02.013-.155.1-.174.118a1.579,1.579,0,0,0-.657,1.282V34.486h-23.4a1.579,1.579,0,0,0-1.492,2.1c4.418,12.764,13.1,22.98,25.809,30.363a1.579,1.579,0,0,0,2.373-1.366V37.772ZM39.417,10.763c7.716,4.575,16.623,5.215,25.4,3.548a56.522,56.522,0,0,1-2.648,20.3H39.417ZM36.386,62.769c-10.07-6.422-17.208-14.857-21.262-25.125H36.386Z" transform="translate(3.371 3.16)" fill="#fff"/>
    <path id="Path_66" data-name="Path 66" d="M88.386,67.1h-.67V60.293A16.7,16.7,0,0,0,73.274,43.752a65.881,65.881,0,0,0,2.9-36.416,1.58,1.58,0,0,0-2.063-1.105,43.516,43.516,0,0,1-14.465,2.8c-12.071,0-16.682-7-16.868-7.292A1.581,1.581,0,0,0,41.447,1a1.725,1.725,0,0,0-1.341.734c-.19.3-4.789,7.3-16.858,7.3a43.511,43.511,0,0,1-14.463-2.8A1.64,1.64,0,0,0,6.692,7.336C6.577,7.8-4.289,53.723,40.682,77.162a1.585,1.585,0,0,0,.73.179h.03a1.578,1.578,0,0,0,.729-.178,78.2,78.2,0,0,0,7.377-4.374V98.024a4.071,4.071,0,0,0,4.074,4.058H88.386a4.07,4.07,0,0,0,4.073-4.058V71.171A4.078,4.078,0,0,0,88.386,67.1Zm-3.829-6.805V67.1H57.451V60.293a13.553,13.553,0,0,1,27.106,0ZM41.427,73.984C3.728,53.862,7.874,18.053,9.4,9.779a45.1,45.1,0,0,0,13.843,2.412c10.208,0,15.836-4.539,18.2-7.093,7.9,8.544,20.811,8.325,32.008,4.7a64.241,64.241,0,0,1-3.515,33.821A16.789,16.789,0,0,0,54.292,60.293V65.25A70.6,70.6,0,0,1,41.427,73.984ZM89.3,98.024a.908.908,0,0,1-.914.9H53.622a.908.908,0,0,1-.915-.9V71.171a.916.916,0,0,1,.915-.915H88.386a.915.915,0,0,1,.914.915Z" fill="#fff"/>
    <path id="Path_67" data-name="Path 67" d="M55.61,52.709a6.329,6.329,0,1,0-12.659,0,6.246,6.246,0,0,0,2.594,5.112l-.758,8.189a1.579,1.579,0,0,0,1.573,1.725h5.857A1.581,1.581,0,0,0,53.729,65.7l-.716-7.869A6.29,6.29,0,0,0,55.61,52.709Zm-4.949,2.863a1.581,1.581,0,0,0-.884,1.565l.678,7.44H48.092l.69-7.454a1.578,1.578,0,0,0-.9-1.573,3.11,3.11,0,0,1-1.777-2.841,3.17,3.17,0,1,1,4.551,2.863Z" transform="translate(21.725 26.294)" fill="#fff"/>
  </g>
</svg>
