<svg id="icon_lock" data-name="icon/lock" xmlns="http://www.w3.org/2000/svg" width="21.998" height="26.999" viewBox="0 0 21.998 26.999">
  <g id="noun_Lock_3488600" transform="translate(-0.001 -0.001)">
    <path id="Shape" d="M20.559,27H1.441A1.4,1.4,0,0,1,0,25.665V13.713a1.4,1.4,0,0,1,1.44-1.335H2.6V7.772C2.6,3.487,6.368,0,11,0s8.4,3.486,8.4,7.771v4.605h1.158A1.4,1.4,0,0,1,22,13.713V25.665A1.394,1.394,0,0,1,20.559,27ZM10.991,16.386A2.4,2.4,0,0,0,8.711,17.9a2.133,2.133,0,0,0,.809,2.485L9.032,22.5a.382.382,0,0,0,.091.347A.462.462,0,0,0,9.469,23h3.06a.458.458,0,0,0,.342-.149.382.382,0,0,0,.091-.347l-.5-2.117a2.137,2.137,0,0,0,.808-2.485A2.407,2.407,0,0,0,10.991,16.386ZM11,3.588a4.823,4.823,0,0,0-2.262.56A4.155,4.155,0,0,0,6.476,7.772v4.605h9.047V7.772a4.155,4.155,0,0,0-2.261-3.625A4.823,4.823,0,0,0,11,3.588Z" fill="#207b41"/>
  </g>
</svg>
